<svg viewBox="0 0 145 54" fill="none" xmlns="http://www.w3.org/2000/svg">
<g clip-path="url(#clip0_183_5255)">
<path d="M57.8118 13.5001H63.5929V36.6429H69.3741V7.71436H63.5929C60.4133 7.71436 57.8118 10.3179 57.8118 13.5001Z" fill="white"/>
<path d="M75.1553 36.6429H80.9365V25.0715C80.9365 21.8894 78.3349 19.2858 75.1553 19.2858V36.6429Z" fill="white"/>
<path d="M86.7177 19.2858V36.6429H92.4988V25.0715H98.28V30.8572C98.28 34.0394 100.882 36.6429 104.061 36.6429V25.0715C104.061 21.8894 101.46 19.2858 98.28 19.2858H86.7177Z" fill="white"/>
<path d="M138.748 19.2858H132.967V13.5001C132.967 10.3179 130.366 7.71436 127.186 7.71436V30.8572H115.624V25.0715H121.405V19.2858H115.624C112.444 19.2858 109.842 21.8894 109.842 25.0715V30.8572C109.842 34.0394 112.444 36.6429 115.624 36.6429H132.967V25.0715H138.748V30.8572C138.748 34.0394 141.35 36.6429 144.529 36.6429V25.0715C144.529 21.8894 141.928 19.2858 138.748 19.2858Z" fill="white"/>
<path d="M75.1553 13.5001H80.9365C80.9365 10.3179 78.3349 7.71436 75.1553 7.71436V13.5001Z" fill="white"/>
<path fill-rule="evenodd" clip-rule="evenodd" d="M66.8251 42.4287V46.1683H66.2954L64.2146 43.5773V46.1683H63.593V42.4287H64.1227L66.2036 45.0304V42.4287H66.8251ZM78.585 46.1683H76.342V42.4287H78.5309V43.0431H77.0067V43.9726H78.3688V44.587H77.0067V45.554H78.585V46.1683ZM88.1018 43.0431H89.3287V46.1683H89.9935V43.0431H91.2204V42.4287H88.1018V43.0431ZM105.369 42.4287H106.007L104.926 46.1683H104.304L103.391 43.4651L102.494 46.1683H101.867L100.737 42.4287H101.483L102.245 45.0945L103.088 42.4287H103.748L104.612 45.0999L105.369 42.4287ZM116.075 42.9843C115.708 43.3547 115.524 43.8124 115.524 44.3573C115.524 44.9307 115.71 45.3955 116.081 45.7516C116.452 46.1078 116.922 46.2859 117.491 46.2859C118.057 46.2859 118.527 46.1042 118.902 45.7409C119.277 45.3777 119.464 44.9164 119.464 44.3573C119.464 43.7874 119.277 43.3227 118.902 42.9629C118.531 42.6068 118.061 42.4287 117.491 42.4287C116.922 42.4287 116.45 42.6139 116.075 42.9843ZM116.589 45.2975C116.347 45.0482 116.227 44.7348 116.227 44.3573C116.227 43.9726 116.346 43.6574 116.583 43.4117C116.825 43.1659 117.127 43.0431 117.491 43.0431C117.848 43.0431 118.149 43.1659 118.394 43.4117C118.639 43.661 118.762 43.9762 118.762 44.3573C118.762 44.7348 118.646 45.0482 118.416 45.2975C118.189 45.5468 117.881 45.6715 117.491 45.6715C117.131 45.6715 116.83 45.5468 116.589 45.2975ZM129.646 44.7793V46.179H128.981V42.4394C129.168 42.4394 129.372 42.4376 129.592 42.4341C129.811 42.4305 129.992 42.4287 130.132 42.4287C131.047 42.4287 131.505 42.8134 131.505 43.5826C131.505 43.8676 131.431 44.1026 131.283 44.2878C131.136 44.4659 130.966 44.587 130.775 44.6511L131.959 46.179H131.154L130.111 44.7793H129.646ZM130.1 43.0431C130.082 43.0431 130.053 43.0449 130.013 43.0484C129.974 43.0484 129.918 43.0502 129.846 43.0538H129.646V44.165H130.078C130.291 44.165 130.464 44.1133 130.597 44.01C130.734 43.9067 130.802 43.7661 130.802 43.588C130.802 43.2247 130.568 43.0431 130.1 43.0431ZM141.476 46.1683H142.14V44.2398L143.686 46.1683H144.529L142.875 44.1703L144.432 42.4287H143.632L142.14 44.2024V42.4287H141.476V46.1683Z" fill="#2F7AEA"/>
<path d="M13.4187 29.4616L14.7676 19.2944L3.04871 11.1522L13.7559 14.7804L16.2852 10.8991L25.517 5.16162L45.8776 16.3835L46.9315 33.5116L37.8683 46.1257L30.702 47.2226L34.4116 40.4304V33.8913L31.7137 28.7866L28.9737 26.9726L24.7582 31.3179V35.9163L21.4702 38.996L17.2969 39.5022L15.4421 40.5569L12.407 39.5866L11.1424 35.0304L13.4187 31.8241V29.4616Z" fill="white"/>
<path d="M32.1352 11.0679C29.901 10.6038 27.456 10.7304 27.456 10.7304C27.456 10.7304 26.6551 14.4429 21.6809 15.4132C21.723 15.4132 28.257 17.6491 32.1352 11.0679Z" fill="#94A6C3"/>
<path d="M34.1586 44.7335C36.8564 42.6242 38.8799 39.7132 39.8073 36.4226C39.8494 36.296 40.2288 36.0851 40.4817 35.9163C40.9033 35.6632 41.3248 35.4523 41.4091 35.1148C41.5777 34.1445 41.662 33.132 41.662 32.1195C41.662 31.7398 41.2827 31.3601 40.9033 30.9804C40.6082 30.7273 40.3131 30.432 40.3131 30.221C39.8916 26.382 38.1211 22.796 35.2967 20.1804L35.0017 20.4757C37.7417 23.0492 39.5122 26.5507 39.8916 30.2632C39.9337 30.6007 40.271 30.9382 40.6082 31.2757C40.9033 31.5288 41.2405 31.9085 41.2405 32.0773C41.2405 33.0476 41.1562 34.0179 40.9876 34.9882C40.9454 35.157 40.566 35.3257 40.271 35.4945C39.8494 35.7054 39.47 35.9163 39.3857 36.2538C38.374 39.8398 36.0555 42.9617 32.9782 44.9867C33.5262 43.8054 35.2546 39.9663 36.182 38.0257L36.0134 31.782L30.6597 26.5929L27.6246 27.0148L24.2944 32.4148C24.2944 32.4148 25.8541 34.3976 23.6621 36.7179C21.5122 38.996 19.8261 39.5023 19.8261 39.5023L18.2663 38.6585C18.73 38.0679 19.6574 37.182 20.3741 36.5913C21.5965 35.5788 22.819 35.4945 22.819 34.3976C22.8612 32.1195 20.4162 32.7523 20.4162 32.7523L19.531 33.596L19.1516 36.7179L17.2968 39.0382L17.086 38.996L14.0509 38.321C14.0509 38.321 15.9057 37.3507 16.2008 36.2538C16.4959 35.1992 15.6106 31.6976 15.5685 31.4867C15.6106 31.5288 16.4537 32.246 16.8331 33.4273C17.5076 31.571 18.3928 29.7992 18.6457 29.6304C18.8987 29.4617 22.3132 27.6476 22.3132 27.6476L21.175 30.6429L22.0181 30.1788L24.0415 25.2007C24.0415 25.2007 26.0228 24.2304 27.4982 24.2304C30.1539 24.1882 34.0743 20.9398 32.3038 15.1179C32.8096 15.3288 41.5777 19.7163 43.0953 28.3226C44.2335 34.946 40.4817 41.1476 34.1586 44.7335Z" fill="#94A6C3"/>
<path d="M24.1259 11.9959C25.0954 10.8569 24.716 9.16937 24.716 9.16937L21.8917 13.3459C21.8495 13.3459 22.9034 13.3881 24.1259 11.9959Z" fill="#0A192B"/>
<path d="M14.6411 34.8195L14.9783 33.132C14.9783 33.132 13.5872 35.5788 13.4608 35.9163C13.3343 36.296 13.5451 36.971 14.0931 36.9288C14.6411 36.8866 15.3156 36.0851 15.3156 35.4945C15.3156 34.7351 14.6411 34.8195 14.6411 34.8195Z" fill="#0A192B"/>
<path d="M39.6808 7.98817C39.6808 7.98817 41.7885 8.07255 43.9806 8.32567C39.0485 4.44442 34.3694 3.30536 30.5755 3.30536C25.3483 3.30536 21.8073 5.45692 21.5966 5.58348L23.2406 2.96786C23.2406 2.96786 16.6645 2.33505 14.346 9.29598C13.7558 7.81942 13.2078 5.66786 13.2078 5.66786C13.2078 5.66786 9.79333 8.66317 11.3952 13.6413C7.47484 12.2069 1.8683 10.2241 1.65753 10.1819C1.36245 10.1397 1.27814 10.2663 1.27814 10.2663C1.27814 10.2663 1.19383 10.3929 1.44676 10.6038C1.91045 10.9835 10.7629 17.5225 12.702 18.7882C12.2804 20.3069 12.2804 21.0241 12.702 21.7413C13.2921 22.7116 13.3343 23.2179 13.25 23.935C13.1657 24.6522 12.4069 30.8538 12.2383 31.6132C12.0697 32.3725 10.2992 35.0725 10.3835 35.8741C10.4678 36.6757 11.5638 40.0929 12.5334 40.4725C13.25 40.7257 15.0205 41.2741 16.2008 41.2741C16.6223 41.2741 17.0017 41.1897 17.1704 41.021C17.887 40.3882 18.0977 40.2616 18.6036 40.2616C18.6458 40.2616 18.6879 40.2616 18.7301 40.2616C18.9408 40.2616 19.1938 40.3038 19.4888 40.3038C20.1633 40.3038 21.0486 40.1772 21.6809 39.5866C22.6083 38.6585 24.2101 37.3929 24.716 36.8022C25.3483 36.0007 25.6855 34.9038 25.5169 33.8069C25.3905 32.7944 25.9385 31.9085 26.5708 31.0225C27.3717 29.9679 28.8471 28.0694 28.8471 28.0694C31.7558 30.2632 33.5684 33.596 33.5684 37.3085C33.5684 43.8897 27.8354 49.2054 20.7535 49.2054C19.6575 49.2054 18.6036 49.0788 17.5497 48.8257C20.7956 49.9647 23.5357 50.3444 25.7699 50.3444C30.5333 50.3444 33.0626 48.6147 33.0626 48.6147C33.0626 48.6147 32.1773 49.7538 30.7441 51.0616C30.7862 51.0616 30.7862 51.0616 30.7862 51.0616C38.6691 49.9647 42.5052 43.4679 42.5052 43.4679C42.5052 43.4679 42.2101 45.5772 41.8307 47.0116C52.3271 39.1225 50.5567 29.2507 50.5145 28.9132C50.5988 29.0397 51.6527 30.3054 52.2007 30.9804C53.8868 13.5991 39.6808 7.98817 39.6808 7.98817ZM23.5357 35.7475C23.3671 35.9585 22.6504 36.5913 22.1446 37.0554C21.6387 37.5194 21.0907 37.9835 20.6692 38.4054C20.5006 38.5741 20.1633 38.6585 19.6575 38.6585C19.4888 38.6585 19.3202 38.6585 19.1938 38.6585C19.1095 38.6585 19.0251 38.6585 18.9408 38.6585C18.8565 38.6585 18.8144 38.6585 18.7722 38.6585C18.6458 38.6585 18.5193 38.6585 18.3928 38.6585C19.0251 37.8147 20.8799 35.8741 21.5123 35.4522C22.271 34.946 22.6504 34.4397 22.1867 33.5538C21.723 32.6679 20.5006 32.8788 20.5006 32.8788C20.5006 32.8788 21.2172 32.5835 21.8495 32.5835C21.0486 32.3725 20.0369 32.5835 19.5732 33.0475C19.0673 33.5116 19.1516 35.1569 18.9408 36.2116C18.7301 37.3085 18.0134 37.8569 16.9174 38.8694C16.3273 39.4179 15.9057 39.5866 15.5685 39.5866C14.8519 39.46 14.0088 39.2491 13.4186 39.0382C12.9971 38.4897 12.3647 36.6757 12.1961 35.9163C12.3226 35.4944 12.8284 34.6085 13.0814 34.1022C13.5872 33.1319 13.8823 32.5835 13.9666 32.0772C14.1352 31.36 14.6832 26.9304 14.894 25.0741C15.442 25.7913 16.2008 26.9725 16.0322 27.7319C17.2547 26.0022 16.3694 24.3147 15.9479 23.6397C15.5685 22.9647 15.0626 21.6147 15.4842 20.1804C15.9057 18.746 17.4233 14.7804 17.4233 14.7804C17.4233 14.7804 17.9291 15.6663 18.6458 15.4975C19.3624 15.3288 25.1375 6.63817 25.1375 6.63817C25.1375 6.63817 26.6973 10.0554 25.0532 12.5444C23.3671 15.0335 21.723 15.4975 21.723 15.4975C21.723 15.4975 24.0415 15.9194 26.1914 14.3585C27.0766 16.4257 27.9197 18.5772 27.9619 18.8725C27.8354 19.1679 26.1492 23.2179 25.9806 23.471C25.8963 23.5554 25.3062 23.7241 24.8846 23.8085C24.168 24.0194 23.7464 24.146 23.5778 24.2725C23.2827 24.5257 21.9338 28.2382 21.3015 30.0522C20.5427 30.2632 19.7839 30.685 19.2359 31.5288C19.531 31.3179 20.4584 31.1913 21.1329 31.1069C21.723 31.0647 23.5357 32.035 23.9994 33.8491C23.9994 33.8913 23.9994 33.8913 23.9994 33.9335C24.0837 34.6085 23.8729 35.2413 23.5357 35.7475ZM19.5732 36.2538C19.9525 35.7054 19.9104 34.7772 19.9525 34.4819C19.9947 34.1866 20.079 33.6382 20.4162 33.5538C20.7535 33.4694 21.5544 33.596 21.5544 34.1866C21.5544 34.735 20.9643 34.8616 20.5427 35.2413C20.2476 35.5366 19.6575 36.1694 19.5732 36.2538ZM36.3928 28.196C36.8143 26.0444 36.8565 24.1882 36.73 22.6694C38.374 24.8632 39.3857 27.521 39.6808 30.2632C39.723 30.6007 40.0602 30.9382 40.3974 31.2757C40.6925 31.5288 41.0298 31.8663 41.0298 32.0772C41.0298 33.0475 40.9454 34.0179 40.7768 34.9882C40.7347 35.1147 40.3553 35.3257 40.0602 35.4944C39.6387 35.7054 39.2593 35.9163 39.175 36.2538C38.2476 39.5022 36.2663 42.371 33.6106 44.396C37.5309 40.3038 39.4279 33.5538 36.3928 28.196ZM33.737 44.7757C36.4771 42.6663 38.5848 39.7132 39.5122 36.3804C39.5543 36.2538 39.9337 36.0429 40.1867 35.8741C40.6082 35.6632 41.0298 35.41 41.1141 35.0725C41.2827 34.1022 41.367 33.0897 41.367 32.0772C41.367 31.6975 40.9876 31.3179 40.6082 30.9382C40.3974 30.685 40.0602 30.3897 40.0602 30.1788C39.723 27.0991 38.5005 24.1882 36.6035 21.7835C35.7605 16.721 32.3881 15.16 32.3038 15.1179C32.3881 15.2444 34.5801 18.4085 33.0626 22.121C31.5029 25.8757 27.4982 25.285 27.161 25.3272C26.8237 25.3272 25.5169 27.0147 23.8729 30.1366C23.6621 30.0522 22.7769 29.8413 21.7652 30.01C22.524 27.9007 23.6621 24.9054 23.8729 24.6522C23.9572 24.5679 24.5895 24.3991 25.0111 24.2725C25.812 24.0616 26.1914 23.935 26.3179 23.7663C26.4022 23.6397 26.8237 22.6694 27.2453 21.6569C27.6246 21.6569 28.5942 21.5725 28.6785 21.5304C28.7628 21.446 29.5637 19.3788 29.5637 19.1257C29.5637 18.9147 27.9197 14.8225 27.2874 13.2616C27.5825 12.9241 27.8776 12.5022 28.1727 12.0382C36.8143 12.9663 43.559 20.3069 43.559 29.2085C43.559 36.0429 39.5543 41.9913 33.737 44.7757Z" fill="#0A192B"/>
<path d="M22.524 21.9944C23.3249 21.0663 22.9034 19.3366 21.428 19.0413C21.8073 18.1553 22.3553 16.3835 22.3553 16.3835C22.3553 16.3835 18.0556 23.1335 17.6762 23.26C17.2968 23.3866 16.9174 21.91 16.9174 21.91C16.1165 24.9897 18.2664 25.4116 18.5193 24.4413C19.6996 24.146 21.723 22.8803 22.524 21.9944Z" fill="#0A192B"/>
<path d="M18.8566 23.6399L21.0486 19.8853C21.0486 19.8853 22.3132 20.5181 21.6809 21.5306C20.88 22.7118 18.8566 23.6399 18.8566 23.6399Z" fill="#FFD923"/>
<path d="M45.9617 41.0211C45.3294 41.8649 44.6127 42.7508 43.7696 43.5946C49.2076 33.1321 44.0226 23.5555 43.8118 23.1758C44.1912 23.5555 44.5706 23.9774 44.9078 24.357C49.0811 28.9977 49.587 35.9586 45.9617 41.0211Z" fill="#D82122"/>
<path d="M51.0202 27.5633C49.1233 22.4586 46.4254 18.1133 40.4816 14.1898C34.7486 10.393 28.5941 10.6883 28.2568 10.7305C28.2147 10.7305 28.1725 10.7305 28.1725 10.7305C28.3833 10.6461 28.5941 10.6039 28.8048 10.5617C30.1116 10.1398 31.7978 9.80235 33.484 9.59141C37.9523 8.9586 42.4629 10.4773 45.5401 13.7258C45.5823 13.768 45.5823 13.768 45.6244 13.8102C49.1233 17.5227 50.9359 22.1633 51.0202 27.5633Z" fill="#D82122"/>
<path d="M39.1327 6.68058C32.8517 5.49933 28.8048 6.08995 25.8962 7.18683C25.8119 6.84933 25.5168 6.17433 25.2639 5.62589C24.3786 6.68058 23.4512 7.9462 22.8611 8.74777C21.2592 9.84464 20.5847 10.8993 20.5847 10.8993C21.5121 7.73527 24.21 5.37277 27.498 4.78214C28.4254 4.61339 29.4371 4.52902 30.5332 4.52902C33.4418 4.5712 36.3505 5.28839 39.1327 6.68058Z" fill="#D82122"/>
<path d="M15.9056 14.7806C10.9735 14.6118 12.6175 8.87433 12.7019 8.53683C12.7019 8.57902 13.0391 13.0509 15.9056 14.7806Z" fill="#D82122"/>
<path d="M20.7533 4.44458C16.9594 6.72271 17.7182 12.1649 17.7182 12.1649C14.0929 6.63833 20.4583 4.57114 20.7533 4.44458Z" fill="#D82122"/>
<path d="M14.5146 16.2992C14.7675 16.5102 15.0205 16.8898 14.7254 17.4383C14.5568 17.7336 14.3038 17.6914 13.9244 17.5227C13.4186 17.2695 10.3835 15.4977 7.64343 13.6836C10.7629 14.7805 13.9244 15.9617 14.4303 16.2148C14.4303 16.2148 14.4725 16.257 14.5146 16.2992Z" fill="white"/>
</g>
<defs>
<clipPath id="clip0_183_5255">
<rect width="144.529" height="54" fill="white"/>
</clipPath>
</defs>
</svg>
